# xmcd
#
# Track frame offsets:
#   150
#   14904
#   34277
#   54960
#   70300
#   89211
#   116143
#   133823
#   144773
#   160546
#
# Disc length: 2388 seconds
#
# Revision: 0
# Processed by: cddbd v1.5.2PL0 Copyright (c) Steve Scherf et al.
# Submitted via: uFREEDB ActiveX Control 1.5
#
DISCID=9009520a
DTITLE=Antologias POP - Anthological Music
DYEAR=2000
DGENRE=Dance
TTITLE0=Last Kiss - Treton
TTITLE1=American Woman - Wayner Texer
TTITLE2=Never Never Gonna Give You Up - Sue Rost
TTITLE3=Invisible Touch - Up Side Down
TTITLE4=Let Her Cry - Gun Machine
TTITLE5=Standy By Me - Shoe Maker
TTITLE6=Man I Feel Like A Woman - Alison Tramp
TTITLE7=Hey Tonight - King Enemies
TTITLE8=You Got It - Mike Kurt
TTITLE9=Dreams - T.O.O.B.S.
EXTD=
EXTT0=
EXTT1=
EXTT2=
EXTT3=
EXTT4=
EXTT5=
EXTT6=
EXTT7=
EXTT8=
EXTT9=
PLAYORDER=
